<?xml version="1.0" encoding="UTF-8" standalone="no"?>
<svg
   xmlns:dc="http://purl.org/dc/elements/1.1/"
   xmlns:cc="http://creativecommons.org/ns#"
   xmlns:rdf="http://www.w3.org/1999/02/22-rdf-syntax-ns#"
   xmlns:svg="http://www.w3.org/2000/svg"
   xmlns="http://www.w3.org/2000/svg"
   xmlns:sodipodi="http://sodipodi.sourceforge.net/DTD/sodipodi-0.dtd"
   xmlns:inkscape="http://www.inkscape.org/namespaces/inkscape"
   viewBox="36.919724 132.85478 234.5517 139.38807"
   data-svgdocument=""
   width="103.41709mm"
   height="46.487778mm"
   id="_qinxcWQiUAHl24sXgPJsk"
   class="fl-svgdocument"
   x="0"
   y="0"
   style="overflow:visible"
   version="1.1"
   sodipodi:docname="logo.svg"
   inkscape:version="1.0.2 (e86c870879, 2021-01-15, custom)">
  <metadata
     id="metadata8">
    <rdf:RDF>
      <cc:Work
         rdf:about="">
        <dc:format>image/svg+xml</dc:format>
        <dc:type
           rdf:resource="http://purl.org/dc/dcmitype/StillImage" />
      </cc:Work>
    </rdf:RDF>
  </metadata>
  <sodipodi:namedview
     pagecolor="#ffffff"
     bordercolor="#666666"
     borderopacity="1"
     objecttolerance="10"
     gridtolerance="10"
     guidetolerance="10"
     inkscape:pageopacity="0"
     inkscape:pageshadow="2"
     inkscape:window-width="1920"
     inkscape:window-height="1001"
     id="namedview6"
     showgrid="false"
     inkscape:zoom="1.6204529"
     inkscape:cx="207.3077"
     inkscape:cy="134.7278"
     inkscape:window-x="1911"
     inkscape:window-y="-9"
     inkscape:window-maximized="1"
     inkscape:current-layer="_qinxcWQiUAHl24sXgPJsk"
     inkscape:document-rotation="0" />
  <defs
     id="_iE46HdEuBiUA6fcNT9Tzl"
     transform="matrix(1.244294285774231, 0, 0, 1.244294285774231, -93.27105712890625, 72.90741729736328)" />
  <path
     id="_VeJDs572SUOh1EKprQBTg-3"
     fill="#404a46"
     text="estreeh"
     text-anchor="start"
     font-size="100px"
     letter-spacing="0"
     side="left"
     offset="0"
     dx="0"
     dy="0"
     space="preserve"
     href=""
     font-family="Coiny"
     font-scale="contain"
     x="0"
     y="0"
     data-fl-textpath=""
     d="m 130.80923,227.7922 v 0 q -6.15444,0 -10.16491,-4.64308 -4.01047,-4.64308 -4.01047,-12.67635 v 0 q 0,-8.69657 3.96003,-13.745 3.96002,-5.04843 10.21535,-5.04843 v 0 q 5.90221,0 8.65152,3.05854 2.74932,3.05854 2.74932,8.36492 v 0 q 0,1.03179 -0.17656,1.98989 -0.17656,0.9581 -0.55492,1.87934 -0.37834,0.92125 -1.00892,1.6951 -0.63057,0.77384 -1.43771,1.40029 -0.80714,0.62645 -1.91695,0.9581 -1.10982,0.33164 -2.37098,0.33164 v 0 l -7.11292,0.0737 q 0.50447,2.35839 1.81607,3.72184 1.3116,1.36344 3.32945,1.36344 v 0 q 2.16919,0 4.43926,-0.81069 v 0 q 0.95848,-0.3685 2.09352,-1.1792 1.13505,-0.81069 1.6395,-0.81069 v 0 q 0.85759,0 1.33683,0.73699 0.47924,0.737 0.47924,1.84249 v 0 q 0,1.3266 -0.80714,3.20594 -0.80714,1.87934 -2.24486,3.75869 -1.43772,1.87934 -3.80869,3.20593 -2.37096,1.3266 -5.09506,1.3266 z m -3.43034,-21.07812 v 0 q 3.48078,-0.0737 3.78346,-0.0737 v 0 q 0.7567,0 1.10981,-1.32659 v 0 q 0.25224,-0.9581 0.25224,-2.65319 v 0 q 0,-4.64308 -1.91696,-4.64308 v 0 q -0.70624,0 -1.38726,1.10549 -0.68103,1.1055 -1.1855,3.13224 -0.50446,2.02674 -0.65579,4.45883 z m 31.42797,-15.03474 v 0 q 4.69149,0 7.81916,2.80059 3.12766,2.80059 3.12766,6.11708 v 0 q 0,0.95809 -0.55491,1.76879 -0.55491,0.8107 -1.41249,0.8107 v 0 q -0.7567,0 -1.66472,-0.77385 -0.90804,-0.77385 -1.71518,-1.65824 -0.80714,-0.8844 -2.11874,-1.6214 -1.3116,-0.73699 -2.77453,-0.73699 v 0 q -1.96741,0 -1.96741,1.76879 v 0 q 0,1.25289 1.00892,1.98989 1.00893,0.737 2.95111,1.5477 1.94218,0.81069 2.9511,1.54769 v 0 q 3.78347,2.13729 5.19596,4.60623 1.41249,2.46894 1.41249,6.52242 v 0 q 0,1.9899 -0.7567,3.94294 -0.75668,1.95304 -2.27007,3.68498 -1.51338,1.73195 -4.11136,2.80059 -2.59798,1.06865 -5.92743,1.06865 v 0 q -6.50756,0 -9.73612,-4.34828 v 0 q -1.56383,-2.1373 -1.56383,-4.42199 v 0 q 0,-1.40029 0.63057,-2.21099 0.63059,-0.81069 1.79084,-0.81069 v 0 q 1.16027,0 3.53124,1.65824 2.37097,1.65824 4.38881,1.65824 v 0 q 2.77455,0 2.77455,-1.98989 v 0 q 0,-1.0318 -1.46295,-1.65824 -1.46293,-0.62645 -3.8339,-1.51085 -2.37097,-0.88439 -3.78347,-2.21099 v 0 q -2.21963,-1.40029 -3.10244,-3.50073 -0.88281,-2.10045 -0.88281,-5.12213 v 0 q 0,-5.15898 3.35468,-8.43862 3.35467,-3.27964 8.70197,-3.27964 z m 18.00928,19.89892 v 0 -8.69656 q -1.26115,-0.0737 -2.01785,-0.62645 -0.7567,-0.55275 -1.08459,-1.43714 -0.3279,-0.8844 -0.3279,-2.21099 v 0 q 0,-4.20089 3.48079,-4.56939 v 0 -6.85407 q 0,-2.80059 2.77453,-5.04843 2.77455,-2.24784 5.49864,-2.24784 v 0 q 1.66473,0 2.16919,1.4003 0.50446,1.40029 0.50446,4.20088 v 0 l 0.0505,8.47546 h 1.36204 q 2.77455,0 3.80868,1.06865 1.03416,1.06865 1.03416,3.86924 v 0 q 0,1.17919 -0.30268,1.98989 -0.30268,0.81069 -0.9837,1.25289 -0.68102,0.4422 -1.63951,0.62645 -0.95847,0.18425 -2.37096,0.18425 v 0 h -0.90803 v 8.10697 q 0,1.17919 0.0756,1.95304 0.0756,0.77384 0.227,1.21604 0.15135,0.4422 0.4288,0.5896 0.27745,0.1474 0.68102,0.1474 v 0 q 0.60535,0 1.00893,-0.62645 0.40357,-0.62644 0.63057,-1.40029 0.22701,-0.77385 0.60536,-1.4003 0.37834,-0.62644 0.88281,-0.62644 v 0 q 1.16025,0 1.79083,0.81069 0.63058,0.8107 0.63058,1.9899 v 0 q 0,1.98989 -0.52969,4.27458 -0.52968,2.28469 -1.53861,4.42198 -1.00892,2.13729 -2.79976,3.53759 -1.79084,1.40029 -4.01047,1.40029 v 0 q -4.99417,0 -7.06245,-3.68499 -2.0683,-3.68498 -2.0683,-12.08675 z m 33.59715,-6.92777 v 14.81364 q 0,4.42198 -1.26115,6.15393 -1.26115,1.73194 -4.48971,1.73194 v 0 q -2.97632,0 -4.03569,-2.02674 -1.05937,-2.02674 -1.05937,-6.66982 v 0 -18.13013 q 0,-2.50579 0.60535,-4.38513 0.60536,-1.87935 1.76562,-2.91114 1.16026,-1.0318 2.72409,-1.0318 v 0 q 3.83391,0 5.04462,3.24279 v 0 q 2.92588,-3.24279 5.64996,-3.24279 v 0 q 5.29686,0 5.29686,7.36997 v 0 q 0,2.94799 -1.16026,4.79048 -1.16027,1.8425 -3.02678,1.8425 v 0 q -1.10982,0 -1.79084,-0.6633 -0.68102,-0.6633 -1.26115,-1.3266 -0.58013,-0.66329 -1.33683,-0.66329 v 0 q -1.10981,0 -1.66472,1.10549 z m 25.82845,23.14171 v 0 q -6.15443,0 -10.1649,-4.64308 -4.01048,-4.64308 -4.01048,-12.67635 v 0 q 0,-8.69657 3.96003,-13.745 3.96002,-5.04843 10.21535,-5.04843 v 0 q 5.90221,0 8.65153,3.05854 2.74931,3.05854 2.74931,8.36492 v 0 q 0,1.03179 -0.17657,1.98989 -0.17656,0.9581 -0.5549,1.87934 -0.37834,0.92125 -1.00892,1.6951 -0.63059,0.77384 -1.43772,1.40029 -0.80715,0.62645 -1.91696,0.9581 -1.10981,0.33164 -2.37097,0.33164 v 0 l -7.11291,0.0737 q 0.50446,2.35839 1.81606,3.72184 1.31161,1.36344 3.32945,1.36344 v 0 q 2.16919,0 4.43926,-0.81069 v 0 q 0.95848,-0.3685 2.09353,-1.1792 1.13503,-0.81069 1.6395,-0.81069 v 0 q 0.85758,0 1.33682,0.73699 0.47924,0.737 0.47924,1.84249 v 0 q 0,1.3266 -0.80714,3.20594 -0.80714,1.87934 -2.24485,3.75869 -1.43772,1.87934 -3.80869,3.20593 -2.37098,1.3266 -5.09507,1.3266 z m -3.43034,-21.07812 v 0 q 3.48079,-0.0737 3.78346,-0.0737 v 0 q 0.75669,0 1.10982,-1.32659 v 0 q 0.25223,-0.9581 0.25223,-2.65319 v 0 q 0,-4.64308 -1.91696,-4.64308 v 0 q -0.70625,0 -1.38726,1.10549 -0.68103,1.1055 -1.18549,3.13224 -0.50446,2.02674 -0.6558,4.45883 z m 33.44583,21.07812 v 0 q -6.15444,0 -10.16491,-4.64308 -4.01048,-4.64308 -4.01048,-12.67635 v 0 q 0,-8.69657 3.96003,-13.745 3.96003,-5.04843 10.21536,-5.04843 v 0 q 5.90219,0 8.65152,3.05854 2.74932,3.05854 2.74932,8.36492 v 0 q 0,1.03179 -0.17657,1.98989 -0.17656,0.9581 -0.5549,1.87934 -0.37834,0.92125 -1.00893,1.6951 -0.63057,0.77384 -1.43772,1.40029 -0.80713,0.62645 -1.91695,0.9581 -1.10982,0.33164 -2.37097,0.33164 v 0 l -7.11291,0.0737 q 0.50446,2.35839 1.81606,3.72184 1.3116,1.36344 3.32945,1.36344 v 0 q 2.16918,0 4.43926,-0.81069 v 0 q 0.95849,-0.3685 2.09352,-1.1792 1.13504,-0.81069 1.6395,-0.81069 v 0 q 0.85759,0 1.33683,0.73699 0.47924,0.737 0.47924,1.84249 v 0 q 0,1.3266 -0.80715,3.20594 -0.80713,1.87934 -2.24485,3.75869 -1.43771,1.87934 -3.80869,3.20593 -2.37097,1.3266 -5.09506,1.3266 z m -3.43035,-21.07812 v 0 q 3.4808,-0.0737 3.78348,-0.0737 v 0 q 0.75668,0 1.10981,-1.32659 v 0 q 0.25223,-0.9581 0.25223,-2.65319 v 0 q 0,-4.64308 -1.91696,-4.64308 v 0 q -0.70625,0 -1.38727,1.10549 -0.68102,1.1055 -1.18548,3.13224 -0.50446,2.02674 -0.65581,4.45883 z m 35.41323,14.51884 -0.0504,-13.63444 q 0,-4.20088 -2.21963,-4.20088 v 0 q -0.40357,0 -0.73147,0.1474 -0.3279,0.1474 -0.60535,0.36849 -0.27746,0.2211 -0.50447,0.62645 -0.227,0.40535 -0.40356,0.8844 -0.17656,0.47905 -0.25224,1.14234 -0.0756,0.6633 -0.0756,1.474 v 0 8.10697 q 0,6.04337 -1.33682,8.58601 -1.33683,2.54264 -4.06092,2.54264 v 0 q -2.82499,0 -4.13659,-2.32154 -1.3116,-2.32154 -1.3116,-8.21752 v 0 l -0.1009,-31.39607 q 0,-4.56938 1.51339,-6.70667 1.51339,-2.13729 4.0357,-2.13729 v 0 q 2.67364,0 4.03569,1.62139 1.36205,1.62139 1.36205,6.55927 v 0 10.68646 q 3.73302,-3.31649 9.08032,-3.31649 v 0 q 2.42141,0 3.88435,1.80565 1.46294,1.80564 2.16919,5.71172 0.70625,3.90609 0.70625,10.24426 v 0 q 0,3.24279 -0.0757,5.60118 -0.0756,2.35839 -0.227,4.31143 -0.15134,1.95304 -0.45402,3.20594 -0.30268,1.25289 -0.70625,2.13729 -0.40357,0.8844 -1.03414,1.36344 -0.63058,0.47905 -1.38728,0.70015 -0.75669,0.2211 -1.81606,0.2211 v 0 q -2.82498,0 -4.06092,-1.51084 -1.23593,-1.51085 -1.23593,-4.60624 z"
     style="overflow:visible;fill:#000000;fill-opacity:0.74902;stroke-width:0.609743" />
  <g
     id="g878"
     transform="matrix(0.61140418,0,0,0.61140418,187.56757,17.187111)">
    <g
       id="g855"
       transform="matrix(2.9983812,0,0,2.9983812,-384.90667,113.99465)">
      <g
         id="g844"
         style="fill:#000000;fill-opacity:0.75">
        <path
           id="path911"
           style="fill:#000000;fill-opacity:0.75;stroke-width:3.81834"
           d="m 210.12695,142.36328 c -1.02381,-0.0981 -2.05779,-0.063 -3.04492,0.125 -6.13243,1.16761 -7.45707,5.90993 -9.08789,32.5293 -1.05004,17.13948 -3.27671,32.52204 -4.94726,34.18359 -1.67058,1.66156 -6.37111,0.93817 -10.44727,-1.60742 -4.07615,-2.54559 -10.01279,-4.62695 -13.19141,-4.62695 -10.17958,0 -6.21591,10.17022 9.49414,24.36328 l 15.27344,13.79883 v 32.46679 c 0,25.0303 -1.20446,32.46424 -5.25976,32.46485 -2.89298,0 -7.39931,-2.57644 -10.01368,-5.72657 -6.09576,-7.34577 -13.83876,-7.33409 -16.66211,0.0234 -1.40596,3.66388 3.98715,11.46106 14.86329,21.48633 25.09166,23.12867 22.71727,37.67383 -6.1504,37.67383 -9.23751,0 -11.14257,1.57665 -11.14257,9.22656 0,5.07519 2.14833,10.09505 4.77343,11.1543 2.6251,1.05921 22.26287,2.06064 43.63868,2.22656 30.08264,0.23335 40.18436,-1.0164 44.70312,-5.53516 8.25665,-8.25664 3.48062,-17.07226 -9.24805,-17.07226 -17.94362,0 -22.77343,-8.51103 -22.77343,-40.125 0,-27.54085 0.29665,-28.40532 14.31836,-41.69531 7.87529,-7.46431 15.60853,-13.58658 17.18359,-13.60547 1.57506,-0.0182 2.86328,-3.46978 2.86328,-7.66992 0,-8.47548 -10.90931,-10.47351 -18.07226,-3.31055 -2.37894,2.37861 -7.01731,3.2923 -10.3086,2.02929 -5.01342,-1.9238 -5.99398,-10.52354 -6.04297,-53.00976 -0.0322,-27.89193 -1.52576,-53.02963 -3.32031,-55.86133 -1.34591,-2.1238 -4.32698,-3.61206 -7.39844,-3.90625 z m 129.15821,49.06445 c -4.65829,0.46136 -9.29658,1.13393 -13.9336,1.84571 4.63702,-0.71178 9.27531,-1.38435 13.9336,-1.84571 z"
           transform="scale(0.26458333)" />
      </g>
    </g>
    <g
       id="g861"
       transform="matrix(2.9983812,0,0,2.9983812,-384.90667,113.99465)">
      <path
         id="path900"
         style="fill:#5890a7;fill-opacity:1;stroke-width:3.81834"
         d="m 143.60156,260.42188 c -10.3962,0.45108 -21.2618,2.90555 -28.26172,7.17382 -22.874094,13.94782 -25.174115,52.27667 -4.02539,67.08985 9.81382,6.87386 46.79113,7.77074 50.83203,1.23242 1.62711,-2.63271 -0.66172,-6.79791 -5.50195,-10.01172 -6.11713,-4.06163 -8.28906,-9.3552 -8.28906,-20.20313 0,-13.3762 1.11634,-14.98709 12.4043,-17.9121 14.40096,-3.73165 18.55132,-15.01714 8.2832,-22.5254 -5.11817,-3.7425 -15.0452,-5.29483 -25.44141,-4.84374 z"
         transform="scale(0.26458333)" />
      <path
         id="path896"
         style="fill:#5890a7;fill-opacity:1;stroke-width:3.81834"
         d="m 143.97656,164.7832 c -20.19563,0 -41.43945,19.47547 -41.43945,37.99024 0,14.22754 8.75525,32.60613 18.13672,38.07031 3.67518,2.14061 14.89621,3.94394 24.9375,4.00781 21.23912,0.13508 28.15146,-8.10642 14.70117,-17.52734 -5.03526,-3.52683 -8.13867,-9.80687 -8.13867,-16.4707 0,-11.67704 5.21599,-17.72478 17.18359,-19.92579 4.20016,-0.77246 8.14446,-4.94083 8.76563,-9.26367 1.42134,-9.8914 -12.71746,-16.88086 -34.14649,-16.88086 z"
         transform="scale(0.26458333)" />
      <path
         id="path894"
         style="fill:#5890a7;fill-opacity:1;stroke-width:3.81834"
         d="m 272.49414,210.16406 c -9.50214,-0.16956 -18.41753,2.08985 -24.67187,7.1543 -10.1106,8.18705 -7.04731,20.01172 5.18359,20.01172 4.6055,0 10.43498,2.06192 12.95508,4.58203 7.13414,7.13416 5.42953,25.31372 -3.05469,32.57812 -4.20016,3.5963 -7.63672,8.73458 -7.63672,11.41797 0,5.17928 35.6918,7.0615 47.55859,2.50782 14.69316,-5.6383 23.10223,-45.39023 12.45899,-58.89649 -9.48943,-12.04209 -26.95607,-19.07286 -42.79297,-19.35547 z"
         transform="scale(0.26458333)" />
      <path
         id="path890"
         style="fill:#5890a7;fill-opacity:1;stroke-width:3.81834"
         d="m 207.26562,94.835938 c -3.90292,0.175357 -7.71544,0.747233 -11.36132,1.753906 -29.76314,8.218016 -53.73813,43.678306 -38.23242,56.546876 8.47955,7.0374 26.63969,3.48258 28.29101,-5.53711 2.22829,-12.17118 8.2912,-17.18164 20.78906,-17.18164 19.56361,0 25.60743,9.00071 25.60743,38.13867 -10e-6,14.02503 1.14486,26.64487 2.54492,28.04492 4.37444,4.37443 37.69708,2.77752 42.51172,-2.03711 6.21828,-6.2183 5.79809,-42.38824 -0.67188,-57.87304 C 266.35736,111.8323 234.58607,93.608435 207.26562,94.835938 Z"
         transform="scale(0.26458333)" />
    </g>
  </g>
</svg>
